<svg xmlns="http://www.w3.org/2000/svg" xmlns:xlink="http://www.w3.org/1999/xlink" viewBox="0 0 295 320"><defs><style>.a{fill:#b0f;}.b,.c,.d,.e{fill:none;stroke-linecap:round;stroke-miterlimit:10;stroke-width:12px;}.b{stroke:url(#a);}.c{stroke:url(#b);}.d{stroke:url(#c);}.e{stroke:url(#d);}</style><linearGradient id="a" y1="172.5" x2="295" y2="172.5" gradientUnits="userSpaceOnUse"><stop offset="0" stop-color="#b0f"/><stop offset="1" stop-color="#b0f"/></linearGradient><linearGradient id="b" y1="120" y2="120" xlink:href="#a"/><linearGradient id="c" x1="221.23" y1="33.5" x2="233.23" y2="33.5" xlink:href="#a"/><linearGradient id="d" x1="62.23" y1="33.5" x2="74.23" y2="33.5" xlink:href="#a"/></defs><path class="a" d="M275.43,237.25a14.43,14.43,0,0,1-5.11,1.48q-3.88.63-5.3.77c.94,3.58,1.42,5.32,1.42,5.23a94.43,94.43,0,0,1,2.64,9.73,246.7,246.7,0,0,0,6.53,24.27,25.54,25.54,0,0,1,.88,3.81,2.88,2.88,0,0,1-1.41,2.4,5.76,5.76,0,0,1-3.35,1,4.3,4.3,0,0,1-3.18-1.49,10.21,10.21,0,0,1-1.94-2.61,110.94,110.94,0,0,1-2.91-10.72q-1.32-5.92-3.09-14.25c-.47-2.44-1.23-5.48-2.29-9.1s-1.76-6-2.12-7.13q-10.41,1.14-35.81,4.52l-10.23,1.41-3.71,8.32-4.94,11.29q-6.16,15.39-8.82,23.71a6.38,6.38,0,0,1-2.11,3.31,5.85,5.85,0,0,1-3.88,1.34,6,6,0,0,1-3.27-.84,2.71,2.71,0,0,1-1.32-2.4c0-1,.7-3.23,2.12-6.56s2.23-5.34,2.47-6c.46-.94,1.41-3.1,2.82-6.49q2.29-5.5,5.91-13.33t4.85-10.37q-9,1.68-13.41,2.68a60,60,0,0,1-8.29,1.41,3.52,3.52,0,0,1-2.91-1.2,4,4,0,0,1-1-2.61,2.48,2.48,0,0,1,1.06-2.33,13.12,13.12,0,0,1,3.53-1.2q6.69-1.28,14.2-2.54t10.32-1.69c1.17-2.73,2.05-5,2.64-6.92q.7-1.83,1.86-4.58t2.55-6.85l2.65-7.19q6.7-18.9,7.76-21.59a19.16,19.16,0,0,1,1.68-3.1,2.55,2.55,0,0,1,2.2-1.13,22.19,22.19,0,0,1,6.35.84,9.59,9.59,0,0,0,1.15-1.19,4.24,4.24,0,0,1,1.77-1.27,7.46,7.46,0,0,1,2.55-.36q3.18,0,7.33,5.79a98,98,0,0,1,8,13.68q2.3,4.67,5.82,13.9t4.59,12.21a30.27,30.27,0,0,0,4.5-.78l2.38-.63a7.92,7.92,0,0,0,1.94-1,11.26,11.26,0,0,1,1.94-1.06,2.57,2.57,0,0,1,1.94.07,3.39,3.39,0,0,1,2.3,3.53,4.43,4.43,0,0,1-.62,2.11A4.05,4.05,0,0,1,275.43,237.25Zm-29.81-26.67a73.6,73.6,0,0,0-6.35-10.72q-3.89-5.51-6.53-6.92l-1.94,3.67a63.72,63.72,0,0,0-5.12,9.74q-4.23,10.16-13.4,33.58l20.64-2.82L249.85,235l4.77-.56-3.71-10.66A126.86,126.86,0,0,0,245.62,210.58Z"/><rect class="b" x="6" y="31" width="283" height="283" rx="24.19"/><line class="c" x1="6" y1="120" x2="289" y2="120"/><line class="d" x1="227.23" y1="6" x2="227.23" y2="61"/><line class="e" x1="68.23" y1="6" x2="68.23" y2="61"/></svg>